#!OML:ASF F:\VICON\USERDATA\INSTALL\rory3\rory3.ASF
:FULLY-SPECIFIED
:DEGREES
261
root 0.655984 17.9268 -0.509675 1.34558 -30.9854 3.21674
lowerback 2.88324 -1.68943 -4.8539
upperback -0.233892 -2.37797 2.89039
thorax -1.53851 -1.14081 5.81963
lowerneck -28.6526 -0.544402 -10.2227
upperneck -10.7612 1.9156 7.61431
head 0.778241 1.40119 4.23654
rclavicle -1.67973e-014 9.54166e-015
rhumerus -33.763 -7.19756 -70.5779
rradius 38.5018
rwrist 14.3054
rhand -26.1832 12.4203
rfingers 7.12502
rthumb 0.368792 -17.5591
lclavicle -1.67973e-014 9.54166e-015
lhumerus 64.6097 15.2754 46.6245
lradius 96.0405
lwrist -3.23033
lhand -39.9031 20.1093
lfingers 7.12502
lthumb -12.8744 49.6922
rfemur -11.1251 2.95707 8.95804
rtibia 25.6532
rfoot -16.0573 -9.31531
rtoes 0.085351
lfemur -0.713792 1.96517 -25.182
ltibia 12.7234
lfoot -10.0333 6.45483
ltoes -11.8249
262
root 0.654375 17.928 -0.504285 1.29257 -31.0377 3.29589
lowerback 2.88829 -1.6867 -4.92294
upperback -0.247028 -2.37689 2.89647
thorax -1.55209 -1.1389 5.86593
lowerneck -28.7457 -0.512884 -10.1442
upperneck -10.7812 1.938 7.54522
head 0.781059 1.40741 4.20433
rclavicle 1.45113e-014 -1.51076e-014
rhumerus -33.6852 -7.16107 -70.602
rradius 38.4047
rwrist 14.3316
rhand -26.2017 12.4714
rfingers 7.12502
rthumb 0.350909 -17.5081
lclavicle 1.45113e-014 -1.51076e-014
lhumerus 64.7065 15.4141 46.6199
lradius 95.95
lwrist -3.27976
lhand -39.7173 19.8204
lfingers 7.12502
lthumb -12.6953 49.4145
rfemur -11.1058 2.99932 8.86739
rtibia 25.6759
rfoot -16.1053 -9.24707
rtoes 0.447729
lfemur -0.655794 1.92576 -25.2688
ltibia 12.676
lfoot -10.0338 6.53136
ltoes -11.6764
263
root 0.653491 17.9264 -0.499014 1.26854 -31.0966 3.33428
lowerback 2.86837 -1.65602 -4.91629
upperback -0.24988 -2.33473 2.90779
thorax -1.54944 -1.11783 5.87204
lowerneck -28.8915 -0.519254 -10.1344
upperneck -10.8099 1.93688 7.47532
head 0.788039 1.40521 4.1818
rclavicle -7.70291e-014 5.56597e-015
rhumerus -33.6684 -7.08182 -70.5864
rradius 38.4098
rwrist 14.3577
rhand -26.1859 12.3853
rfingers 7.12502
rthumb 0.366161 -17.5942
lclavicle -7.70291e-014 5.56597e-015
lhumerus 64.8399 15.4752 46.7011
lradius 95.9304
lwrist -3.40563
lhand -39.2998 20.221
lfingers 7.12502
lthumb -12.2927 49.8397
rfemur -11.11 2.98967 8.81878
rtibia 25.6857
rfoot -16.0729 -9.19459
rtoes 0.477249
lfemur -0.62502 1.96756 -25.3208
ltibia 12.6655
lfoot -10.0381 6.59958
ltoes -11.8255
264
root 0.652217 17.9257 -0.493701 1.30908 -31.1117 3.30525
lowerback 2.85556 -1.61735 -4.84724
upperback -0.320669 -2.27968 2.96701
thorax -1.62329 -1.08658 5.89449
lowerneck -28.8762 -0.598067 -10.3223
upperneck -10.8412 1.89167 7.51939
head 0.777911 1.39103 4.22271
rclavicle 3.70733e-014 -1.66979e-014
rhumerus -33.8394 -6.84403 -70.5073
rradius 38.5515
rwrist 14.1287
rhand -26.3226 12.1908
rfingers 7.12502
rthumb 0.234178 -17.7888
lclavicle 3.70733e-014 -1.66979e-014
lhumerus 64.8813 15.4019 46.8793
lradius 95.9454
lwrist -3.44753
lhand -39.2015 20.3825
lfingers 7.12502
lthumb -12.1979 50.0069
rfemur -11.1394 2.92731 8.84595
rtibia 25.6797
rfoot -16.0034 -9.19215
rtoes -0.00489184
lfemur -0.646024 2.00642 -25.3014
ltibia 12.6994
lfoot -10.0509 6.6046
ltoes -12.0662
265
root 0.651956 17.925 -0.491124 1.34244 -31.0549 3.23936
lowerback 2.94834 -1.57966 -4.75561
upperback -0.437359 -2.22909 3.03211
thorax -1.80396 -1.0532 5.91548
lowerneck -28.7692 -0.680867 -10.3713
upperneck -10.7908 1.79185 7.42189
head 0.787909 1.33848 4.18921
rclavicle -4.63168e-014 6.36111e-015
rhumerus -34.0788 -6.68458 -70.3843
rradius 38.6553
rwrist 13.8591
rhand -26.5439 12.0901
rfingers 7.12502
rthumb 0.0204068 -17.8897
lclavicle -4.63168e-014 6.36111e-015
lhumerus 64.8951 15.2458 47.0105
lradius 95.928
lwrist -3.44236
lhand -39.4542 19.9457
lfingers 7.12502
lthumb -12.4416 49.5554
rfemur -11.1106 2.92698 8.91287
rtibia 25.6678
rfoot -16.0532 -9.22822
rtoes 0.118223
lfemur -0.677106 1.97425 -25.2407
ltibia 12.7607
lfoot -10.0875 6.57638
ltoes -12.1135
266
root 0.6505 17.9252 -0.487319 1.36544 -31.051 3.20619
lowerback 2.9543 -1.54739 -4.68624
upperback -0.482562 -2.18351 3.04532
thorax -1.86231 -1.02806 5.88953
lowerneck -28.7189 -0.725737 -10.3776
upperneck -10.7719 1.73298 7.41466
head 0.792933 1.309 4.18248
rclavicle 4.56211e-014 -7.95139e-015
rhumerus -34.1666 -6.77194 -70.3368
rradius 38.6865
rwrist 13.8665
rhand -26.5931 12.2101
rfingers 7.12502
rthumb -0.0270636 -17.7696
lclavicle 4.56211e-014 -7.95139e-015
lhumerus 64.9888 15.1954 47.0138
lradius 95.9219
lwrist -3.49115
lhand -39.5359 20.1628
lfingers 7.12502
lthumb -12.5204 49.7677
rfemur -11.0905 2.98278 8.95276
rtibia 25.6608
rfoot -16.0742 -9.27231
rtoes -0.026048
lfemur -0.700006 2.08275 -25.2064
ltibia 12.8047
lfoot -10.1136 6.49514
ltoes -12.3634
267
root 0.649126 17.9236 -0.482686 1.34314 -31.0926 3.26866
lowerback 2.90565 -1.5304 -4.70597
upperback -0.478513 -2.16007 3.0181
thorax -1.83429 -1.01715 5.86943
lowerneck -28.7642 -0.719482 -10.2328
upperneck -10.7771 1.70025 7.29944
head 0.799935 1.28362 4.11942
rclavicle 2.08724e-015 -1.66979e-014
rhumerus -34.1014 -6.91556 -70.3908
rradius 38.6674
rwrist 14.0474
rhand -26.5659 12.1567
rfingers 7.12502
rthumb -0.00077271 -17.823
lclavicle 2.08724e-015 -1.66979e-014
lhumerus 65.1186 15.2357 46.9417
lradius 95.8911
lwrist -3.53383
lhand -39.4691 21.0313
lfingers 7.12502
lthumb -12.4559 50.6401
rfemur -11.0962 3.01194 8.88575
rtibia 25.6675
rfoot -16.0683 -9.26829
rtoes -0.132718
lfemur -0.716235 2.16042 -25.2538
ltibia 12.8447
lfoot -10.1836 6.41367
ltoes -11.9298
268
root 0.647387 17.9219 -0.476723 1.31457 -31.1401 3.31164
lowerback 2.90565 -1.51581 -4.72431
upperback -0.495474 -2.14135 3.01121
thorax -1.854 -1.00652 5.87243
lowerneck -28.7549 -0.689868 -9.91463
upperneck -10.8356 1.63862 6.92064
head 0.785673 1.22648 3.93941
rclavicle -2.62396e-014 1.82882e-014
rhumerus -34.0235 -7.02244 -70.4399
rradius 38.6194
rwrist 14.319
rhand -26.5534 12.0031
rfingers 7.12502
rthumb 0.0112151 -17.9766
lclavicle -2.62396e-014 1.82882e-014
lhumerus 65.1392 15.2772 46.8759
lradius 95.874
lwrist -3.49638
lhand -39.6659 21.2167
lfingers 7.12502
lthumb -12.6457 50.8139
rfemur -11.0998 3.03863 8.82476
rtibia 25.7145
rfoot -16.1534 -9.17909
rtoes 0.0289708
lfemur -0.668473 2.12685 -25.3
ltibia 12.8041
lfoot -10.1934 6.4727
ltoes -11.6641
269
root 0.645235 17.92 -0.46887 1.31181 -31.2107 3.33393
lowerback 2.86984 -1.50573 -4.73143
upperback -0.514044 -2.12674 3.01669
thorax -1.85463 -0.998629 5.8809
lowerneck -28.6852 -0.657473 -9.73691
upperneck -10.9534 1.61931 6.73171
head 0.742933 1.20219 3.84695
rclavicle 1.28713e-014 -3.4191e-014
rhumerus -34.002 -6.90601 -70.4871
rradius 38.6145
rwrist 14.4267
rhand -26.6268 11.9948
rfingers 7.12502
rthumb -0.059667 -17.985
lclavicle 1.28713e-014 -3.4191e-014
lhumerus 65.0956 15.3404 46.7868
lradius 95.8607
lwrist -3.42614
lhand -39.98 21.1347
lfingers 7.12502
lthumb -12.9485 50.7129
rfemur -11.138 3.0474 8.78756
rtibia 25.7843
rfoot -16.1902 -9.08092
rtoes 0.0127398
lfemur -0.594204 2.07285 -25.3471
ltibia 12.7045
lfoot -10.148 6.58469
ltoes -11.7981
270
root 0.642579 17.9182 -0.462337 1.26179 -31.2071 3.44906
lowerback 2.86197 -1.51416 -4.82854
upperback -0.548619 -2.14168 2.98794
thorax -1.88165 -1.00333 5.90719
lowerneck -28.6102 -0.645532 -9.75662
upperneck -11.0329 1.63594 6.85404
head 0.709641 1.21512 3.89054
rclavicle -2.57923e-014 -7.95139e-016
rhumerus -34.0504 -6.80993 -70.536
rradius 38.657
rwrist 14.3822
rhand -26.6913 12.0646
rfingers 7.12502
rthumb -0.121975 -17.9151
lclavicle -2.57923e-014 -7.95139e-016
lhumerus 65.1534 15.3844 46.718
lradius 95.7844
lwrist -3.44583
lhand -39.8483 21.0508
lfingers 7.12502
lthumb -12.8215 50.637
rfemur -11.1444 2.99231 8.66626
rtibia 25.8454
rfoot -16.1928 -9.01271
rtoes -0.144308
lfemur -0.534021 2.11197 -25.4661
ltibia 12.6176
lfoot -10.1403 6.57417
ltoes -11.8789
271
root 0.640937 17.9174 -0.456569 1.2036 -31.1401 3.55198
lowerback 2.89973 -1.51674 -4.91091
upperback -0.614614 -2.14979 2.99047
thorax -1.96715 -1.00192 5.96023
lowerneck -28.4679 -0.681688 -9.93804
upperneck -11.1586 1.63506 7.04635
head 0.654201 1.22727 3.98087
rclavicle -5.6107e-014 -1.27222e-014
rhumerus -34.1345 -6.78387 -70.5025
rradius 38.7131
rwrist 14.3141
rhand -26.6372 11.9372
rfingers 7.12502
rthumb -0.0697279 -18.0426
lclavicle -5.6107e-014 -1.27222e-014
lhumerus 65.2032 15.3414 46.7764
lradius 95.7159
lwrist -3.49474
lhand -39.7489 20.6109
lfingers 7.12502
lthumb -12.7257 50.2031
rfemur -11.1122 2.92227 8.55371
rtibia 25.8933
rfoot -16.2702 -8.91965
rtoes 0.417903
lfemur -0.467502 2.13928 -25.5703
ltibia 12.5374
lfoot -10.0671 6.52034
ltoes -12.0688
272
root 0.638427 17.9176 -0.450515 1.19011 -31.0619 3.5586
lowerback 2.88544 -1.51027 -4.89456
upperback -0.643741 -2.13946 3.03101
thorax -1.98979 -0.995349 5.99342
lowerneck -28.4952 -0.754634 -10.1697
upperneck -11.0989 1.61413 7.19562
head 0.676074 1.23143 4.06551
rclavicle 8.19987e-015 1.98785e-014
rhumerus -34.1196 -6.80784 -70.4
rradius 38.6787
rwrist 14.2392
rhand -26.4972 11.8522
rfingers 7.12502
rthumb 0.0655138 -18.1275
lclavicle 8.19987e-015 1.98785e-014
lhumerus 65.1986 15.3045 46.8723
lradius 95.7648
lwrist -3.50122
lhand -39.9609 20.3485
lfingers 7.12502
lthumb -12.9301 49.9279
rfemur -11.0626 2.89989 8.54821
rtibia 25.9348
rfoot -16.3615 -8.91706
rtoes 0.532614
lfemur -0.396326 2.09235 -25.5829
ltibia 12.4652
lfoot -10.0271 6.52647
ltoes -12.4487
273
root 0.634867 17.9175 -0.442885 1.17984 -31.0443 3.58133
lowerback 2.76119 -1.48023 -4.87717
upperback -0.602513 -2.0939 3.01038
thorax -1.88488 -0.977303 5.95463
lowerneck -28.6354 -0.8083 -10.1991
upperneck -10.9562 1.56706 7.29026
head 0.741214 1.21487 4.09894
rclavicle 4.67641e-014 -2.94201e-014
rhumerus -34.0251 -7.02796 -70.3471
rradius 38.5895
rwrist 14.2544
rhand -26.3323 12.0717
rfingers 7.12502
rthumb 0.224777 -17.908
lclavicle 4.67641e-014 -2.94201e-014
lhumerus 65.4181 15.2952 46.901
lradius 95.6733
lwrist -3.58386
lhand -40.0743 20.3718
lfingers 7.12502
lthumb -13.0394 49.9443
rfemur -11.0403 2.90253 8.52887
rtibia 25.9577
rfoot -16.4029 -8.93477
rtoes 0.887165
lfemur -0.346128 1.98812 -25.616
ltibia 12.4375
lfoot -10.0398 6.61391
ltoes -12.3535
274
root 0.633013 17.9157 -0.436343 1.2213 -31.0543 3.51985
lowerback 2.65064 -1.46509 -4.76862
upperback -0.554858 -2.06568 2.9959
thorax -1.78145 -0.969002 5.87135
lowerneck -28.8072 -0.847385 -10.1664
upperneck -10.8075 1.52118 7.34038
head 0.812035 1.1951 4.10829
rclavicle -6.69407e-014 6.36111e-015
rhumerus -33.9395 -7.22092 -70.3676
rradius 38.5831
rwrist 14.3304
rhand -26.4128 12.214
rfingers 7.12502
rthumb 0.147043 -17.7657
lclavicle -6.69407e-014 6.36111e-015
lhumerus 65.6403 15.3525 46.923
lradius 95.5504
lwrist -3.67467
lhand -40.0259 20.2908
lfingers 7.12502
lthumb -12.9927 49.8662
rfemur -11.0476 2.85197 8.59172
rtibia 25.9658
rfoot -16.3496 -8.95305
rtoes 0.680043
lfemur -0.33358 2.01073 -25.5642
ltibia 12.4477
lfoot -10.0753 6.62142
ltoes -12.4137
275
root 0.631328 17.9146 -0.432271 1.18177 -30.9946 3.47284
lowerback 2.68977 -1.47438 -4.7026
upperback -0.541726 -2.07701 3.02042
thorax -1.78966 -0.975411 5.86085
lowerneck -28.9173 -0.839426 -10.0889
upperneck -10.6459 1.51556 7.21198
head 0.874539 1.18566 4.05446
rclavicle 1.12313e-013 -1.03368e-014
rhumerus -33.9198 -7.221 -70.361
rradius 38.6147
rwrist 14.3036
rhand -26.4943 12.1254
rfingers 7.12502
rthumb 0.0683687 -17.8544
lclavicle 1.12313e-013 -1.03368e-014
lhumerus 65.6291 15.3744 46.9537
lradius 95.574
lwrist -3.90919
lhand -40.0048 20.6376
lfingers 7.12502
lthumb -12.9724 50.2143
rfemur -10.9523 2.85613 8.6526
rtibia 25.9741
rfoot -16.4009 -9.02281
rtoes 0.080245
lfemur -0.25493 2.02487 -25.5115
ltibia 12.4684
lfoot -10.1239 6.56519
ltoes -12.4278
